
<svg xmlns="http://www.w3.org/2000/svg" xmlns:xlink="http://www.w3.org/1999/xlink" width="287.029" height="219.04" viewBox="0 0 287.029 219.04"
>

<defs>

<style>.a,
.b{fill:#0e446e;}
.a,
.e,
.r{opacity:0.2;}
.c{fill:#444053;}
.d{fill:#3a3768;}
.f{fill:#e6e8ec;}
.g{opacity:0.2;}
.h{fill:url(#a);}
.i{fill:#cc818c;}
.j{opacity:0.9;}
.k{fill:#ff748f;}
.l,
.n{fill:#575988;}
.m{fill:#dce6f2;}
.n{opacity:0.5;}
.o{fill:#67647e;}
.p{fill:#585268;}
.q{fill:#e4aab4;}

</style>
<linearGradient id="a" x1="0.871" y1="1" x2="0.871" gradientUnits="objectBoundingBox">

<stop offset="0" stop-color="gray" stop-opacity="0.251"/>

<stop offset="0.54" stop-color="gray" stop-opacity="0.122"/>

<stop offset="1" stop-color="gray" stop-opacity="0.102"/>

</linearGradient>
</defs>

<g transform="translate(-0.023 0.02)">

<path class="a" d="M250.217,101.723c-18.082-.629-35.3-6.465-51.752-12.852S165.732,75.41,148.082,72.023c-11.352-2.176-24.332-2.484-33.479,3.6-8.8,5.867-11.645,15.967-13.176,25.349-1.148,7.057-1.824,14.486,1.327,21.094,2.188,4.588,6.074,8.443,8.762,12.835,9.348,15.288,2.741,34.153-7.387,49.07-4.75,7-10.265,13.69-13.933,21.139s-5.364,16-2.157,23.6c3.182,7.544,10.762,13.2,18.973,17.18,16.674,8.1,36.321,10.4,55.49,11.712,42.417,2.9,85.064,1.646,127.592.388,15.741-.467,31.549-.939,47.036-3.372,8.6-1.349,17.476-3.5,23.718-8.661,7.924-6.574,9.888-17.705,4.579-25.95-8.907-13.827-33.527-17.261-39.76-32.1-3.428-8.169.092-17.266,5.071-24.843,10.684-16.249,28.59-30.507,29.535-49.081.648-12.757-7.96-25.534-21.27-31.571-13.953-6.325-33.3-5.529-43.585,4.942C284.805,98.127,266.176,102.282,250.217,101.723Z" transform="translate(-86.32 -67.098)"/>
<ellipse class="a" cx="103.649" cy="7.706" rx="103.649" ry="7.706" transform="translate(58.357 195.28)"/>
<path class="b" d="M379.26,695.035s5.867-.939,9.388,3.21c0,0-2.582,2.034-8.136-.782Z" transform="translate(-297.398 -517.007)"/>
<path class="b" d="M370.778,695s-3.741,4.615-1.905,9.737c0,0,3.051-1.224,3.383-7.443Z" transform="translate(-289.548 -517.048)"/>
<path class="b" d="M365,663.99s2.347-4.3,11.734,1.721c0,0-1.252,2.894-5.4,2.66S366.09,666.273,365,663.99Z" transform="translate(-287.122 -493.629)"/>
<path class="b" d="M349.032,666.708s-4.87-.559-5.342,10.592c0,0,3.087.64,5.281-2.886S350.258,668.909,349.032,666.708Z" transform="translate(-271.766 -496.657)"/>
<path class="b" d="M352.66,624.251s2.738-7.588,12.673-2.191c0,0-2.269,6.962-11.656,4.772Z" transform="translate(-278.23 -463.09)"/>
<path class="b" d="M341.73,585.066s5.166-7.669,14.319-.559c0,0-3.207,7.2-13.537,3.286Z" transform="translate(-270.354 -435.248)"/>
<path class="b" d="M337.81,547.579s6.026-7.041,15.1,0c0,0-5.711,6.18-15.1,1.8Z" transform="translate(-267.529 -408.56)"/>
<path class="b" d="M334.45,509.393s6.1-7.354,14.788-.391c0,0-6.884,6.493-14.788,2.112Z" transform="translate(-265.108 -380.857)"/>
<path class="b" d="M336.41,471.187s6.426-9.469,14.553-3.051c0,0-6.884,8.136-14.553,4.85Z" transform="translate(-266.52 -351.96)"/>
<path class="b" d="M341.73,433.227s6.809-9.388,14.71-2.191c0,0-8.058,8.139-14.71,3.911Z" transform="translate(-270.354 -324.877)"/>
<path class="b" d="M348.952,395.267s8.058-8.82,15.087-5.309c0,0-8.4,9.368-15.439,7.647Z" transform="translate(-275.304 -296.637)"/>
<path class="b" d="M358.239,357.663s9.309-10.8,14.707-7.2c0,0-6.851,8.382-15.366,9.22Z" transform="translate(-281.775 -268.244)"/>
<path class="b" d="M371.672,321.861s8.139-8.823,14.084-6.633c0,0-6.962,9.153-15.176,9.388Z" transform="translate(-291.143 -243.129)"/>
<path class="b" d="M386.651,285.673s9-8.452,12.908-6.965c0,0-6.493,9.39-13.3,8.843Z" transform="translate(-302.442 -216.938)"/>
<path class="b" d="M400.54,246.878s7.745-10.092,11.969-9.309c0,0-4.694,9-11.969,10.337Z" transform="translate(-312.733 -187.387)"/>
<path class="b" d="M413.792,206.589s6.845-7.739,10.542-7.72c0,0-5.4,10.337-10.824,10.243Z" transform="translate(-322.079 -159.532)"/>
<path class="b" d="M420.631,155.268l6.61-16.118s.333,14.57-7.451,19.108Z" transform="translate(-326.604 -116.497)"/>
<path class="b" d="M432.287,95.691s1.1-13.455.391-14.551c0,0,4.727,11.176-.439,20.5Z" transform="translate(-335.576 -74.695)"/>
<path class="b" d="M322.606,632.032s-6.856-4.25-11.3,6.147c0,0,6.1,4.048,12.1-3.5Z" transform="translate(-248.433 -471.053)"/>
<path class="b" d="M308.782,591.053s-8.41-3.836-12.492,7.018c0,0,6.5,4.47,13.257-4.275Z" transform="translate(-237.609 -441.669)"/>
<path class="b" d="M297.5,549.929s-6.024-7.041-15.087,0c0,0,5.711,6.18,15.087,1.8Z" transform="translate(-227.607 -410.253)"/>
<path class="b" d="M295.578,509.393s-6.1-7.354-14.788-.391c0,0,6.887,6.493,14.788,2.112Z" transform="translate(-226.44 -380.857)"/>
<path class="b" d="M301.374,467.233s-4.28-10.617-13.584-6.043c0,0,5.029,9.4,13.207,7.8Z" transform="translate(-231.484 -347.737)"/>
<path class="b" d="M308.35,427.357s-4.252-10.787-13.69-5.783c0,0,5.778,9.888,13.271,7.451Z" transform="translate(-236.435 -319.06)"/>
<path class="b" d="M328.6,378.056s-1.676-11.827-9.5-12.886c0,0,1.657,12.472,8.443,15.017Z" transform="translate(-254.046 -279.369)"/>
<path class="b" d="M342.282,340.163s-.654-14.249-7.122-14.743c0,0,.218,10.815,6.392,16.763Z" transform="translate(-265.619 -250.725)"/>
<path class="b" d="M355.992,304.109s-1.931-11.849-8.1-13.3c0,0,.766,11.477,7.493,16.2Z" transform="translate(-274.793 -225.785)"/>
<path class="b" d="M379,267.877s-.067-12.341-3.836-14.157c0,0-2.341,11.176,2.744,15.733Z" transform="translate(-294.057 -199.057)"/>
<path class="b" d="M389.734,233.15s-.528-12.71-4.434-14.5c0,0-1.338,10.058,3.847,15.333Z" transform="translate(-301.639 -173.786)"/>
<path class="b" d="M406.869,197.21s-.025-10.337-2.811-12.76c0,0-2.774,11.324,1.355,14.841Z" transform="translate(-314.611 -149.141)"/>
<path class="b" d="M411.956,150.618l-2.71-17.208s-3.685,14.1,2.841,20.309Z" transform="translate(-318.26 -112.361)"/>
<path class="b" d="M405.924,100.662S398.962,89.1,399.1,87.81c0,0,.74,12.123,9.5,18.16Z" transform="translate(-311.697 -79.501)"/>
<path class="b" d="M401.824,75.764S395.253,59.335,392.28,58c0,0,9.388,4.772,10.092,17.289Z" transform="translate(-306.78 -58.02)"/>
<path class="c" d="M412.227,150.8l-.447-.14c5.546-18.082,6.929-29.615,3.895-32.5l.324-.341C419.215,120.871,417.91,132.276,412.227,150.8Z" transform="translate(-320.832 -101.127)"/>
<path class="c" d="M357.015,274.773l-.665-.235c.587-1.657,1.224-3.339,1.889-5,5.789-14.436,10.715-27.847,13.875-38.154l.578-.279c-3.165,10.307-8,24.248-13.8,38.7C358.23,271.454,357.6,273.125,357.015,274.773Z" transform="translate(-280.889 -182.765)"/>
<path class="c" d="M353.487,482.932c-.089-.1-9.08-10.22-15.344-27.5a101.816,101.816,0,0,1-6.063-31.507c-.427-13.447,2.392-28.464,7.228-42.1l.525.615c-10.852,30.61-6.541,56.842-.821,72.636,6.2,17.124,15.087,27.134,15.174,27.235Z" transform="translate(-263.369 -291.367)"/>
<path class="b" d="M244.151,735.784s-10.631-.64-9.376,6.809a1.817,1.817,0,0,0,.944,1.914s.017-.559,1.09-.366a4.9,4.9,0,0,0,1.154.056,2.409,2.409,0,0,0,1.414-.581h0s2.987-1.235,4.149-6.119c0,0,.861-1.064.824-1.338l-1.794.766a3.208,3.208,0,0,1,.131,2.369s-.059-2.322-.4-2.269c-.07,0-.933.45-.933.45s1.056,2.255.26,3.892c0,0,.3-2.777-.587-3.73l-1.263.738s1.232,2.327.4,4.227c0,0,.212-2.914-.662-4.048l-1.146.894s1.157,2.294.453,3.87c0,0-.092-3.392-.7-3.649a7.009,7.009,0,0,0-1.154,1.246s.793,1.676.3,2.545c0,0-.3-2.26-.559-2.271a7.52,7.52,0,0,0-1.1,2.514,5.437,5.437,0,0,1,.858-2.665,2.992,2.992,0,0,0-1.526.791s.154-1.059,1.771-1.151a7.643,7.643,0,0,1,1.045-1.207,6.552,6.552,0,0,0-2.584.3,2.928,2.928,0,0,1,2.881-.559l1.118-.922a9.641,9.641,0,0,0-3.017.031s1.034-.883,3.322-.24l1.229-.735a11.184,11.184,0,0,0-2.883-.249,4.429,4.429,0,0,1,3.244.05l.88-.394s-1.324-.26-1.71-.3-.411-.148-.411-.148a4.578,4.578,0,0,1,2.487.279A11.378,11.378,0,0,0,244.151,735.784Z" transform="translate(-193.207 -546.427)"/>
<path class="b" d="M133.562,748.155s-10.617-.64-9.374,6.809a1.813,1.813,0,0,0,.942,1.914s.02-.559,1.092-.366a4.742,4.742,0,0,0,1.154.056,2.392,2.392,0,0,0,1.411-.581h0s2.99-1.235,4.152-6.119c0,0,.858-1.064.838-1.338l-1.794.766a3.208,3.208,0,0,1,.131,2.369s-.059-2.322-.4-2.269c-.07,0-.933.45-.933.45s1.056,2.255.26,3.892c0,0,.3-2.777-.59-3.73l-1.263.738s1.232,2.327.4,4.227c0,0,.215-2.914-.662-4.048l-1.143.894s1.157,2.294.453,3.87c0,0-.092-3.392-.7-3.649a7.006,7.006,0,0,0-1.154,1.246s.793,1.676.3,2.545c0,0-.3-2.26-.559-2.271a7.581,7.581,0,0,0-1.1,2.515,5.453,5.453,0,0,1,.861-2.665,3.006,3.006,0,0,0-1.528.791s.156-1.059,1.774-1.151a7.516,7.516,0,0,1,1.045-1.2,6.529,6.529,0,0,0-2.584.3,2.927,2.927,0,0,1,2.881-.559l1.118-.922a9.637,9.637,0,0,0-3.017.031s1.034-.883,3.322-.24l1.229-.735a11.2,11.2,0,0,0-2.883-.249,4.428,4.428,0,0,1,3.244.05l.88-.394s-1.324-.26-1.713-.3-.408-.148-.408-.148a4.612,4.612,0,0,1,2.487.279A11.5,11.5,0,0,0,133.562,748.155Z" transform="translate(-113.519 -555.341)"/>
<path class="b" d="M195.2,777.194s-10.617-.64-9.376,6.809a1.817,1.817,0,0,0,.944,1.914s.02-.559,1.09-.366a4.9,4.9,0,0,0,1.157.056,2.409,2.409,0,0,0,1.411-.581h0s2.987-1.235,4.149-6.119c0,0,.861-1.065.838-1.338l-1.794.766a3.224,3.224,0,0,1,.131,2.369s-.059-2.322-.405-2.269c-.07,0-.93.45-.93.45s1.053,2.252.257,3.892c0,0,.3-2.777-.587-3.73l-1.263.738s1.232,2.327.4,4.227c0,0,.215-2.914-.662-4.048l-1.146.894s1.16,2.294.453,3.87c0,0-.092-3.392-.7-3.649a6.9,6.9,0,0,0-1.154,1.246s.793,1.676.3,2.545c0,0-.3-2.26-.559-2.272a7.522,7.522,0,0,0-1.1,2.515,5.436,5.436,0,0,1,.858-2.665,2.992,2.992,0,0,0-1.525.791s.154-1.059,1.774-1.151a6.95,6.95,0,0,1,1.042-1.207,6.551,6.551,0,0,0-2.584.3,2.91,2.91,0,0,1,2.881-.545l1.118-.922a9.64,9.64,0,0,0-3.017.031s1.037-.883,3.322-.24l1.232-.735a11.238,11.238,0,0,0-2.875-.24,4.425,4.425,0,0,1,3.244.05l.877-.394s-1.322-.26-1.71-.3-.408-.148-.408-.148a4.58,4.58,0,0,1,2.487.279A11.275,11.275,0,0,0,195.2,777.194Z" transform="translate(-157.931 -576.268)"/>
<ellipse class="a" cx="7.524" cy="1.271" rx="7.524" ry="1.271" transform="translate(21.455 209.16)"/>
<ellipse class="a" cx="7.524" cy="1.271" rx="7.524" ry="1.271" transform="translate(260.105 209.16)"/>
<ellipse class="a" cx="7.524" cy="1.271" rx="7.524" ry="1.271" transform="translate(188.053 216.478)"/>
<ellipse class="a" cx="7.524" cy="1.271" rx="7.524" ry="1.271" transform="translate(272.005 198.141)"/>
<ellipse class="a" cx="7.524" cy="1.271" rx="7.524" ry="1.271" transform="translate(36.097 197.348)"/>
<ellipse class="a" cx="7.524" cy="1.271" rx="7.524" ry="1.271" transform="translate(5.188 200.916)"/>
<rect class="d" width="120.516" height="179.196" rx="9.8" transform="translate(84.6 22.264)"/>
<rect class="e" width="99.947" height="35.228" rx="17.614" transform="translate(95.63 37.667)"/>
<rect class="f" width="98.432" height="34.072" rx="10.2" transform="translate(96.273 38.354)"/>
<rect class="e" width="19.876" height="22.083" rx="9.938" transform="translate(99.111 87.569)"/>
<rect class="e" width="19.876" height="22.083" rx="9.938" transform="translate(123.405 87.569)"/>
<rect class="e" width="19.876" height="22.083" rx="9.938" transform="translate(147.698 87.569)"/>
<rect class="e" width="19.876" height="22.083" rx="9.938" transform="translate(171.991 88.039)"/>
<rect class="b" width="19.876" height="22.083" rx="9.938" transform="translate(171.991 87.569)"/>
<rect class="e" width="19.876" height="22.083" rx="9.938" transform="translate(99.111 111.862)"/>
<rect class="e" width="19.876" height="22.083" rx="9.938" transform="translate(123.405 111.862)"/>
<rect class="e" width="19.876" height="22.083" rx="9.938" transform="translate(147.698 111.862)"/>
<rect class="e" width="19.876" height="22.083" rx="9.938" transform="translate(99.111 138.678)"/>
<rect class="e" width="19.876" height="22.083" rx="9.938" transform="translate(123.405 138.678)"/>
<rect class="e" width="19.876" height="22.083" rx="9.938" transform="translate(147.698 138.678)"/>
<rect class="e" width="19.876" height="22.083" rx="9.938" transform="translate(147.698 165.494)"/>
<rect class="e" width="19.876" height="22.083" rx="9.938" transform="translate(171.991 112.332)"/>
<rect class="b" width="19.876" height="22.083" rx="9.938" transform="translate(171.991 111.862)"/>
<rect class="g" width="19.876" height="22.083" rx="9.938" transform="translate(171.991 111.862)"/>
<rect class="e" width="44.169" height="22.083" rx="10.04" transform="translate(99.111 165.494)"/>
<rect class="e" width="21.767" height="48.902" rx="10.884" transform="translate(170.096 138.678)"/>
<rect class="b" width="8.7" height="0.942" transform="translate(181.585 66.475)"/>
<rect class="b" width="8.7" height="0.942" transform="translate(168.848 66.475)"/>
<rect class="b" width="8.7" height="0.942" transform="translate(156.107 66.475)"/>
<rect class="b" width="8.7" height="0.942" transform="translate(143.37 66.475)"/>
<path class="h" d="M817.7,428.894a11.854,11.854,0,0,0,0-6.035v-2.847a9.942,9.942,0,0,0-3.551-9.136l-3.034-2.677a11.324,11.324,0,0,0-2.2-1.553,2.263,2.263,0,0,0-.279-.042l-.089-.053a9.141,9.141,0,0,1-.665-1.4,1.294,1.294,0,0,0,1.081-.369,1.4,1.4,0,0,0,.254-.427h0c.176-.394.207-.872.355-1.291a3.08,3.08,0,0,1,.559-.928c-.031.05-.064.1-.092.151.43-.536.992-.995,1.4-1.559a3.512,3.512,0,0,0,.221-.349c-.017.025-.039.047-.059.073a7.939,7.939,0,0,0,.891-3.031,2.728,2.728,0,0,0,.017-1.084,3.941,3.941,0,0,0-.3-.687c-.659-1.361-.648-3.073-1.7-4.16a5.126,5.126,0,0,0-3.126-1.2,8.124,8.124,0,0,1-3.294-.813,3.473,3.473,0,0,0-.891-.489.732.732,0,0,0-.875.324.575.575,0,0,1-.117.237.38.38,0,0,1-.335.02l-1.506-.4.017.075h-.039l.056.237a.129.129,0,0,1,.142.081l-.243.374a3.776,3.776,0,0,1-1.358-.279.329.329,0,0,0,0,.073h-.022c-.028.425.455.7.6,1.1a.836.836,0,0,1,0,.539,1.179,1.179,0,0,1-.279.43c-.534.528-1.218.425-1.833.757a.4.4,0,0,0-.223.249.182.182,0,0,0-.02.137.325.325,0,0,0,.126.156,2.8,2.8,0,0,0,.584.363c-.061.056-.12.112-.176.171a6.733,6.733,0,0,0,2.327,10.986c.023.117.039.238.056.363v.036l.017.162-2.029.863a1.615,1.615,0,0,1-1.453-.936c-.472-.975-2.14,0-2.14,0s-5.088-.38-6.985.559c0,0-3.037-1.274-3.465-1.361s-1.067-.425-1.366-.338-.685-.559-.9-.511-.3-.425-.984-.6-.941.045-1.71-.721-7.015-3.783-7.015-3.783l-2.805-2.308-2.992-2.38-.053.1c-.02-.07-.039-.143-.059-.221a28.71,28.71,0,0,0-1.117-3.49c-.193-.461-.28-1.042-.539-.735-.159.184-.43-.221-.838-.495a.707.707,0,0,0-1.053.307h0c-2.33,3.654-3.166,3.911-1.816,5.255,1.2,1.193,2,2.235,2.984,2.565l.117.036a.127.127,0,0,1-.064,0l5.688,6.8s4.1,3.571,6.929,4.716S779.042,410,779.042,410s8.555,4.333,9.879,4.25,1.07,8.882.514,10.337-1.453,11.9-1.453,11.9-.858,2.21.042,3.738a23.6,23.6,0,0,1,.02,3.632,12.485,12.485,0,0,0-2.073,5.339,3.059,3.059,0,0,1-.034.324.753.753,0,0,1-.2.165l.19-.056a10.76,10.76,0,0,1-.559,2.565,10.422,10.422,0,0,0-.707,3.649v6.75l-.559,4.191s-.685,3.171,0,3.911a1.81,1.81,0,0,1,.374,1.3,2.425,2.425,0,0,0,.436,1.52,1.136,1.136,0,0,1,.279.975c-.226.735.335,8.555.335,8.555a8.7,8.7,0,0,1-.391,2.269c-.226.115.391,2.492.391,2.492s-2.31,1.928-1.721,2.948l.59.905-.156.154-.1.1a.911.911,0,0,0-.59-.112,22.506,22.506,0,0,1-2.325,2.07,25.246,25.246,0,0,1-3.878,1.841l-2.235.182h-.042s-1.07-.1-.469,1.556,5.971,1.148,5.971,1.148l3.135-.495a59.584,59.584,0,0,0,7.189-.327c.668-.148.838-.506.782-.866h0l-.017-.017a2.237,2.237,0,0,0-.458-.936.354.354,0,0,0-.039-.05l.1-1.146c2.372-1.366-.671-4.054-.671-4.054a28.113,28.113,0,0,1,1.576-3c.534-.735.534-11.561.534-11.561s.279-3.911-.455-4.817a1.629,1.629,0,0,1,.8-1.472c.528-.36,2.123-5.325,3.375-9.446l.788,4.856s-.171,2.325.341,3a1.157,1.157,0,0,1,.213.905,4.078,4.078,0,0,0,.115,1.956,1.292,1.292,0,0,0,.416.7c.455.226.484,1.034.654,1.2s1.226-.24,1.282.383a14.129,14.129,0,0,1,0,1.643l.344,10.086a6.7,6.7,0,0,0-.685,3.073,3.951,3.951,0,0,1-.411,1.8.925.925,0,0,0,.084,1.084l.1.115-.422.324a.93.93,0,0,0-.263,1.148.9.9,0,0,0-.26.978.687.687,0,0,0,.073.159,1.586,1.586,0,0,0-.852.422,6.988,6.988,0,0,1-1.506,1.514,28.978,28.978,0,0,0-2.4,2.056,3.448,3.448,0,0,1-1.4,1.118,2.319,2.319,0,0,1-.422.126c-1.117.229-.768,1.4.143,1.59s3.934,1.118,6.286.578a2.22,2.22,0,0,0,1.724-.24,25.329,25.329,0,0,1,3.314-1.157s1.283,0,1.456-.508a1.988,1.988,0,0,0,.073-.5l.036-.036-.033-.031a6.77,6.77,0,0,0-.087-1.137c-.033-.2-.07-.369-.1-.508-.109-.425-.313-.975-.4-1.207a.435.435,0,0,0,.039-.059c.489-.838-.324-2.827-.324-2.827a5.425,5.425,0,0,1,.964-1.143c.455-.341,1.654-9.181,1.654-9.181a8.021,8.021,0,0,1,.559-3.286c.617-1.02-.855-7.194-.855-7.194s-.629-1.417-.4-1.928a6.774,6.774,0,0,0-.229-2.38v-2.235a2.467,2.467,0,0,0-.131-.782,3.7,3.7,0,0,1-.154-2.257c.4-1.02,1.31-7.309,1.31-7.309a8.416,8.416,0,0,1,.332-4.984,4.343,4.343,0,0,1,.279-.511c.774-1.215.542-3.375.16-5.116-.056-.279-.12-.531-.185-.774-.025-.106-.053-.207-.081-.307l.123-.05a3.625,3.625,0,0,1,.039-.447,3.141,3.141,0,0,0,2.056-1.422,23,23,0,0,1,4.917-4.166,4.275,4.275,0,0,0,2.481-3.017c-.341-.6.612-3.017.612-3.017Zm-9.094-22.248Zm1.567,26.159-2.47,2.864v-.017c-.643-.894.6-2.892.6-2.892l2.054-4.582a2.592,2.592,0,0,1-.28,1.349c-.559.766,1.028,2.042,1.028,2.042C810.261,431.574,810.177,432.806,810.177,432.806Z" transform="translate(-571.859 -296.326)"/>
<path class="i" d="M768.321,397.714l-1.349,2.618a5.309,5.309,0,0,1-1.255-.263,4.749,4.749,0,0,1-2.948-2.548,3.706,3.706,0,0,1,1.715-4.887c.928-.508,1.791-1.087,2.487.581a28.85,28.85,0,0,1,1.092,3.467C768.226,397.295,768.321,397.714,768.321,397.714Z" transform="translate(-573.488 -298.782)"/>
<path class="i" d="M909.571,439.272l-2.154,3.207s-10.178,4.856-8.233-.838a12.8,12.8,0,0,0,.8-5.621v-.036a4.522,4.522,0,0,0-.8-2.28s9.921-5.079,8.443-1.607a4.783,4.783,0,0,0-.349,2.285,7.792,7.792,0,0,0,1.067,3.171A10.557,10.557,0,0,0,909.571,439.272Z" transform="translate(-671.881 -326.723)"/>
<path class="c" d="M867.361,610.9s1.464,6.147.838,7.15a7.763,7.763,0,0,0-.559,3.266s-1.182,8.784-1.632,9.119a5.37,5.37,0,0,0-.958,1.118s.8,1.989.321,2.811a.682.682,0,0,1-.321.279c-.754.319-3.543-1.1-5.13-1.956a.905.905,0,0,1-.162-1.475.922.922,0,0,1,.257-1.14l.419-.324-.1-.115a.925.925,0,0,1-.084-1.078,3.914,3.914,0,0,0,.405-1.791,6.56,6.56,0,0,1,.676-3.04L861,613.7a13.886,13.886,0,0,0,0-1.632c-.056-.617-1.1-.209-1.266-.38s-.2-.97-.648-1.2a1.282,1.282,0,0,1-.408-.7,4.02,4.02,0,0,1-.115-1.956,1.153,1.153,0,0,0-.21-.9c-.505-.676-.338-2.981-.338-2.981l-.777-4.828c-1.238,4.1-2.811,9.03-3.333,9.388a1.623,1.623,0,0,0-.788,1.461c.732.9.45,4.789.45,4.789s0,10.751-.528,11.486a27.727,27.727,0,0,0-1.551,2.995s3.017,2.685.643,4.04H852.1c-2.422,1.352-7.432-2.419-7.432-2.419l.522-.522.153-.154-.592-.883c-.581-1.014,1.7-2.928,1.7-2.928s-.609-2.367-.386-2.478a8.657,8.657,0,0,0,.386-2.252s-.559-7.77-.33-8.5a1.146,1.146,0,0,0-.28-.97,2.414,2.414,0,0,1-.43-1.509,1.794,1.794,0,0,0-.371-1.294c-.676-.732,0-3.883,0-3.883l.559-4.169v-6.619a10.556,10.556,0,0,1,.707-3.735,11.177,11.177,0,0,0,.615-3,12.57,12.57,0,0,1,2.1-5.39c.408-.626.713-1,.713-1l18.015-.7s.279.8.581,1.917c.062.243.123.5.182.768.377,1.732.6,3.878-.159,5.085a4.77,4.77,0,0,0-.279.509,8.419,8.419,0,0,0-.327,4.954s-.9,6.247-1.294,7.264a3.649,3.649,0,0,0,.154,2.235,2.546,2.546,0,0,1,.125.779v2.227a6.775,6.775,0,0,1,.226,2.366C866.738,609.492,867.361,610.9,867.361,610.9Z" transform="translate(-632.77 -434.812)"/>
<path class="e" d="M924.016,596.215a4.3,4.3,0,0,0-.279.506l-1.014-.056c.1-.523-.592-5.42-.592-5.42l2.042-.115C924.549,592.859,924.779,595.005,924.016,596.215Z" transform="translate(-688.595 -442.198)"/>
<path class="c" d="M924.616,595.6a4.739,4.739,0,0,0-.279.508l-1.014-.059c.1-.52-.592-5.42-.592-5.42l2.042-.115C925.152,592.252,925.379,594.4,924.616,595.6Z" transform="translate(-689.027 -441.758)"/>
<path class="j" d="M924.616,595.6a4.739,4.739,0,0,0-.279.508l-1.014-.059c.1-.52-.592-5.42-.592-5.42l2.042-.115C925.152,592.252,925.379,594.4,924.616,595.6Z" transform="translate(-689.027 -441.758)"/>
<path class="e" d="M903.653,766.672a.682.682,0,0,1-.322.28c-.754.318-3.543-1.1-5.13-1.956a.914.914,0,0,1-.422-.5c.905-.165,1.5.838,1.5.838a1.335,1.335,0,0,1,1.858.45c.774,1.14,2.434.659,2.434.659Z" transform="translate(-671.048 -567.111)"/>
<path class="k" d="M885.751,770.577c-.167.509-1.436.509-1.436.509a27.034,27.034,0,0,0-3.28,1.154,2.241,2.241,0,0,1-1.7.24c-2.322.534-5.309-.394-6.208-.578s-1.252-1.35-.14-1.576a2.256,2.256,0,0,0,.416-.129,3.4,3.4,0,0,0,1.4-1.117,28.569,28.569,0,0,1,2.372-2.042,6.935,6.935,0,0,0,1.487-1.506,1.434,1.434,0,0,1,2.266.436,1.335,1.335,0,0,1,1.858.453c.774,1.14,2.434.657,2.434.657s.3.763.439,1.31c.033.14.07.313.1.508A4.617,4.617,0,0,1,885.751,770.577Z" transform="translate(-652.68 -567.566)"/>
<circle class="l" cx="0.154" cy="0.154" r="0.154" transform="translate(229.045 199.144)"/>
<circle class="l" cx="0.154" cy="0.154" r="0.154" transform="translate(227.724 200.382)"/>
<circle class="l" cx="0.154" cy="0.154" r="0.154" transform="translate(226.38 201.494)"/>
<circle class="l" cx="0.154" cy="0.154" r="0.154" transform="translate(227.076 200.997)"/>
<circle class="l" cx="0.154" cy="0.154" r="0.154" transform="translate(228.414 199.725)"/>
<path class="m" d="M885.751,780.338c-.167.508-1.436.508-1.436.508a27.042,27.042,0,0,0-3.28,1.154,2.243,2.243,0,0,1-1.7.24c-2.322.534-5.309-.394-6.208-.578s-1.252-1.35-.14-1.576a2.247,2.247,0,0,0,.416-.129,10.8,10.8,0,0,0,3.045.578c2.294.1,4.11,0,4.11,0l2.322-.746a3.876,3.876,0,0,1,1.436-.52,3.754,3.754,0,0,0,1.428-.62A4.382,4.382,0,0,1,885.751,780.338Z" transform="translate(-652.68 -577.326)"/>
<path class="n" d="M898.8,784.473a1.918,1.918,0,0,1-.385-.036l.033-.165a2.459,2.459,0,0,0,1.4-.2c.207-.081.413-.179.615-.279a7.735,7.735,0,0,1,.735-.319l.229-.078c.126-.045.254-.087.377-.14.07-.028.14-.061.207-.095a2.369,2.369,0,0,1,.52-.2,2.532,2.532,0,0,1,.279-.036,2.5,2.5,0,0,0,.257-.031,2.439,2.439,0,0,0,.489-.182,2.366,2.366,0,0,1,.525-.2l.123-.02a.6.6,0,0,0,.363-.134l.126.115a.759.759,0,0,1-.461.187l-.117.02a2.254,2.254,0,0,0-.489.182,2.564,2.564,0,0,1-.525.193,1.865,1.865,0,0,1-.279.034,2.44,2.44,0,0,0-.262.034,2.225,2.225,0,0,0-.484.187l-.212.1c-.129.053-.263.1-.391.142l-.224.078c-.246.089-.486.2-.721.313s-.413.2-.626.279A3.047,3.047,0,0,1,898.8,784.473Z" transform="translate(-671.502 -580.007)"/>
<path class="e" d="M901.73,684.873A4.179,4.179,0,0,1,904.9,683.2a12.641,12.641,0,0,0,2.855-.226,7.144,7.144,0,0,1-2.165.858A37.807,37.807,0,0,0,901.73,684.873Z" transform="translate(-673.895 -508.379)"/>
<path class="e" d="M904.15,689.014a4.7,4.7,0,0,1,1.659-.76c.6-.028,1.118-.084,1.118-.084a3.234,3.234,0,0,1-.928.45C905.505,688.76,904.15,689.014,904.15,689.014Z" transform="translate(-675.638 -512.126)"/>
<path class="e" d="M905,693s1.59.126,1.6.559" transform="translate(-676.251 -515.606)"/>
<path class="e" d="M851.93,600.318a6.3,6.3,0,0,0,1.6-2.068,1.445,1.445,0,0,1,.618-.911s.916.366.1,1.489A4.522,4.522,0,0,1,851.93,600.318Z" transform="translate(-638.008 -446.673)"/>
<path class="e" d="M908.209,432.078c-.324.765-.609.838-.559,1.567a5.593,5.593,0,0,1-1.288,1.014c-1.006.6-2.1,1.769-3.353,1.769a6.68,6.68,0,0,1-2.45-.464,4.521,4.521,0,0,0-.8-2.28S909.684,428.6,908.209,432.078Z" transform="translate(-672.475 -326.708)"/>
<path class="i" d="M900.851,408.245a6.705,6.705,0,1,1-6.705-6.705A6.705,6.705,0,0,1,900.851,408.245Z" transform="translate(-663.597 -305.578)"/>
<path class="e" d="M909.571,452.522l-2.154,3.208s-10.178,4.856-8.233-.838a12.8,12.8,0,0,0,.8-5.621H900a5.379,5.379,0,0,1,.2,1.294c.031.877.053,1.986,2.235,2.352a6.068,6.068,0,0,0,5.912-2.1A10.555,10.555,0,0,0,909.571,452.522Z" transform="translate(-671.881 -339.973)"/>
<path class="e" d="M776.591,409.388l-1.349,2.618a5.307,5.307,0,0,1-1.254-.263l-.117-.14c.559.212,2.406-3.294,2.406-3.294l.059.047C776.5,408.969,776.591,409.388,776.591,409.388Z" transform="translate(-581.757 -310.456)"/>
<path class="e" d="M879.4,582.826c-4.347,1.889-19.384.279-19.384.279a2.056,2.056,0,0,0,.075-.492c.408-.626.712-1,.712-1l18.015-.7S879.116,581.712,879.4,582.826Z" transform="translate(-643.838 -434.833)"/>
<path class="o" d="M810.306,420.372l-2.006.858a1.59,1.59,0,0,1-1.433-.93c-.466-.97-2.112,0-2.112,0s-5.029-.38-6.884.559c0,0-3-1.268-3.42-1.352s-1.056-.422-1.352-.338-.673-.559-.886-.506-.3-.422-.972-.592-.927.042-1.676-.718-6.926-3.758-6.926-3.758l-2.794-2.28-2.956-2.364s-1.858,3.5-2.409,3.291L780.1,419s4.054,3.545,6.842,4.685,2.576,1.478,2.576,1.478,8.446,4.308,9.753,4.224,1.062,8.815.5,10.251-1.433,11.824-1.433,11.824-.838,2.2.042,3.716a21.234,21.234,0,0,1,0,3.674s15.129,1.618,19.423-.3c0,0,.634-7.01,0-7.9s.592-2.861.592-2.861l2.7-6.038,6.588-6.63a9.918,9.918,0,0,0-3.506-9.077l-3-2.663a11.1,11.1,0,0,0-2.168-1.542c-.492-.092-.31,0-.31,0a6.049,6.049,0,0,1-5.968,2.176c-2.173-.366-2.2-1.475-2.235-2.35A5.477,5.477,0,0,0,810.306,420.372Z" transform="translate(-582.197 -310.918)"/>
<path class="e" d="M903.508,531.19s-9.292.38-11.148,3.3a9.15,9.15,0,0,1,4.56-.8C899.071,534.023,903.508,531.19,903.508,531.19Z" transform="translate(-667.142 -399.005)"/>
<path class="e" d="M895.53,562.162s4.392.3,5.323-.634.933-1.478.933-1.478Z" transform="translate(-669.427 -419.801)"/>
<path class="e" d="M931.729,499.14s-3.719,4.392.8,6.292Z" transform="translate(-694.476 -375.909)"/>
<path class="e" d="M856.69,468.77s1.352,2.758,2.028,2.939Z" transform="translate(-641.438 -354.024)"/>
<path class="e" d="M840.37,464.53a50,50,0,0,0,4.012,3.336S840.876,464.53,840.37,464.53Z" transform="translate(-629.678 -350.969)"/>
<path class="e" d="M883.8,454.11s-3.252,4.856-1.14,7.823A10.521,10.521,0,0,1,883.8,454.11Z" transform="translate(-659.639 -343.46)"/>
<path class="i" d="M890.757,578.782l-.995.936-.14.128-1.151,1.09c-.081.061-.162.123-.246.179-4.685,3.353-5.624-1.743-5.624-1.743s-2.068,1.352-2.364.254,4.814-2.66,5.588-2.576a1,1,0,0,0,.2,0,3.2,3.2,0,0,0,1.05-.372l.226-.12q.39-.22.757-.478Z" transform="translate(-658.398 -431.353)"/>
<path class="e" d="M906.318,408.236a6.706,6.706,0,0,1-3.269,5.772,3.844,3.844,0,0,1-.246-.489c-.24-.559-.388-1.162-.631-1.724a5.306,5.306,0,0,0-1.118-1.643.71.71,0,0,0-.3-.207.8.8,0,0,0-.615.17,2.829,2.829,0,0,1-.936.411,1,1,0,0,1-.939-.279,1.405,1.405,0,0,1-.151-1.171,14.565,14.565,0,0,0,.442-2.623,2.567,2.567,0,0,0-1.117-2.285,10.016,10.016,0,0,0-2.285-.5,2.477,2.477,0,0,1-.344-.117,6.706,6.706,0,0,1,11.508,4.683Z" transform="translate(-668.908 -305.569)"/>
<path class="p" d="M892.592,395.7c-.12.064-.254.182-.218.316a.319.319,0,0,0,.123.156,2.931,2.931,0,0,0,1.062.545,9.484,9.484,0,0,1,2.288.5,2.59,2.59,0,0,1,1.117,2.285,14.75,14.75,0,0,1-.439,2.621,1.409,1.409,0,0,0,.148,1.173,1,1,0,0,0,.939.279,2.792,2.792,0,0,0,.936-.408.813.813,0,0,1,.618-.173.76.76,0,0,1,.3.207,5.3,5.3,0,0,1,1.117,1.646c.246.559.391,1.159.631,1.724a2.8,2.8,0,0,0,1.118,1.4,1.409,1.409,0,0,0,1.693-.179c.413-.458.38-1.087.576-1.637.335-.958,1.271-1.559,1.858-2.386a7.5,7.5,0,0,0,1.017-3.224,2.646,2.646,0,0,0,.017-1.078,3.893,3.893,0,0,0-.3-.682c-.654-1.352-.64-3.054-1.676-4.132a5.035,5.035,0,0,0-3.087-1.2,7.958,7.958,0,0,1-3.25-.807,3.53,3.53,0,0,0-.88-.486.721.721,0,0,0-.866.324.578.578,0,0,1-.115.235.371.371,0,0,1-.332.02l-1.486-.4.17.749a3.719,3.719,0,0,1-1.578-.279c-.028.425.45.7.6,1.1a1.014,1.014,0,0,1-.279,1.028C893.875,395.468,893.2,395.365,892.592,395.7Z" transform="translate(-667.148 -298.785)"/>
<path class="e" d="M852.218,760.209l-.062.673h-.025c-2.422,1.352-7.432-2.42-7.432-2.42l.522-.522a.911.911,0,0,1,.229.707l1.023.056,1.224,1.321a23.244,23.244,0,0,0,4.208.17Z" transform="translate(-632.798 -562.403)"/>
<path class="k" d="M828.135,763.865a58.572,58.572,0,0,1-7.094.327l-3.1.489s-5.308.509-5.9-1.14.464-1.545.464-1.545h.042l2.21-.179a25.3,25.3,0,0,0,3.831-1.83,22.271,22.271,0,0,0,2.294-2.056s.922-.179.905.888l1.023.056,1.224,1.324a23.047,23.047,0,0,0,4.208.168h.313L828.417,762l.039.048C828.669,762.306,829.543,763.552,828.135,763.865Z" transform="translate(-609.139 -562.388)"/>
<circle class="l" cx="0.154" cy="0.154" r="0.154" transform="translate(213.128 197.228)"/>
<circle class="l" cx="0.154" cy="0.154" r="0.154" transform="translate(209.158 198.949)"/>
<circle class="l" cx="0.154" cy="0.154" r="0.154" transform="translate(207.113 199.569)"/>
<circle class="l" cx="0.154" cy="0.154" r="0.154" transform="translate(210.2 198.619)"/>
<circle class="l" cx="0.154" cy="0.154" r="0.154" transform="translate(208.133 199.259)"/>
<circle class="l" cx="0.154" cy="0.154" r="0.154" transform="translate(211.254 198.13)"/>
<circle class="l" cx="0.154" cy="0.154" r="0.154" transform="translate(212.296 197.677)"/>
<path class="m" d="M828.135,774.376a58.578,58.578,0,0,1-7.094.327l-3.1.489s-5.308.509-5.9-1.14.464-1.545.464-1.545h.042a2.843,2.843,0,0,0,2.35.961l3.817.154,3.953-.279s3.7-.109,4.308-.237a8.829,8.829,0,0,0,1.475-.542C828.669,772.817,829.543,774.063,828.135,774.376Z" transform="translate(-609.139 -572.899)"/>
<path class="n" d="M833.076,777.071a2.283,2.283,0,0,1-.626-.078l.044-.162a3.1,3.1,0,0,0,1.57-.07c.187-.05.372-.1.559-.159a8.837,8.837,0,0,1,1.031-.26,8.539,8.539,0,0,1,1.7-.05h.12a26.147,26.147,0,0,0,5.068-.226,1.9,1.9,0,0,0,1.084-.436l.12.12a2.057,2.057,0,0,1-1.176.483,26.29,26.29,0,0,1-5.1.226h-.123a6.275,6.275,0,0,0-2.685.3c-.187.056-.375.112-.559.159A4.237,4.237,0,0,1,833.076,777.071Z" transform="translate(-623.971 -575.15)"/>
<path class="e" d="M908.984,578.775l-.995.936-2.47-3.163a8.891,8.891,0,0,0,.757-.478Z" transform="translate(-676.625 -431.346)"/>
<path class="o" d="M919.779,493l1.956,2.7v2.83a11.847,11.847,0,0,1,0,6l.095,2.618s-.941,2.406-.6,3a4.234,4.234,0,0,1-2.448,3,23.01,23.01,0,0,0-4.867,4.124,3.311,3.311,0,0,1-3.59,1.436l-2.492,1.056-2.87-3.674,3.884-2.112s1.352-1.813,2.154-1.729l3.294-3.844s.084-1.224.927-1.224c0,0-1.562-1.266-1.014-2.026s.087-4.141.087-4.141Z" transform="translate(-676.222 -371.485)"/>
<path class="e" d="M945,536.838s4.434-.084,4.982,1.056S946.338,536.2,945,536.838Z" transform="translate(-705.075 -403.007)"/>
<path class="e" d="M904.567,581.153a1.163,1.163,0,0,1-.019.221,1.492,1.492,0,0,1-1.4,1.268h-.078a1.492,1.492,0,0,1-1.492-1.492,1.446,1.446,0,0,1,.084-.483,2.56,2.56,0,0,1-.724-2.1,3.2,3.2,0,0,0,1.051-.372,6.951,6.951,0,0,0,.735,1.5,1.567,1.567,0,0,1,.347-.042A1.5,1.5,0,0,1,904.567,581.153Z" transform="translate(-673.323 -432.88)"/>
<path class="l" d="M902.56,577s-1,.226-1,.408-.226,1.83.872,2.514.986-.944.986-.944S902.474,577.531,902.56,577Z" transform="translate(-673.758 -432.016)"/>
<circle class="q" cx="1.492" cy="1.492" r="1.492" transform="translate(228.425 146.781)"/>
<circle class="m" cx="1.28" cy="1.28" r="1.28" transform="translate(228.637 146.993)"/>
<path class="e" d="M888.321,590.84a7.392,7.392,0,0,0,7.206.956v1.268s-2.7,1.858-5.149.732S888.321,590.84,888.321,590.84Z" transform="translate(-664.215 -441.989)"/>
<path class="e" d="M888.321,589.63a7.384,7.384,0,0,0,7.206.955v1.268s-2.7,1.858-5.149.732S888.321,589.63,888.321,589.63Z" transform="translate(-664.215 -441.117)"/>
<path class="c" d="M888.321,589.63a7.384,7.384,0,0,0,7.206.955v1.268s-2.7,1.858-5.149.732S888.321,589.63,888.321,589.63Z" transform="translate(-664.215 -441.117)"/>
<path class="j" d="M888.62,589.63a7.388,7.388,0,0,0,7.208.955v1.268s-2.7,1.858-5.152.732S888.62,589.63,888.62,589.63Z" transform="translate(-664.43 -441.117)"/>
<path class="e" d="M852.91,757.94s4.224.777,4.842.944-.168.464-.168.464S853.729,758.658,852.91,757.94Z" transform="translate(-638.714 -562.403)"/>
<path class="e" d="M852.56,744.417c.07,0,2.872-.788,3.476-2.137" transform="translate(-638.462 -551.118)"/>
<path class="e" d="M867.19,692.1s1.134,1.492,1.866,1.45S867.855,692.04,867.19,692.1Z" transform="translate(-649.005 -514.954)"/>
<path class="e" d="M869.44,701s.478,1.053,1.182.715" transform="translate(-650.626 -521.371)"/>
<path class="j" d="M879,617.969l2.995,7.9s.422-5.082-.469-6.6A2.635,2.635,0,0,0,879,617.969Z" transform="translate(-657.515 -461.53)"/>
<g class="r" transform="translate(225.201 93.613)">
<path d="M904.036,393.373l-.025-.115-.48-.129.053.235A4.113,4.113,0,0,0,904.036,393.373Z" transform="translate(-900.393 -393.13)"/>
<path d="M899.05,396.54l.051-.045a1.011,1.011,0,0,0,.279-1.028,1.346,1.346,0,0,0-.24-.383,3.947,3.947,0,0,1-.693-.2c-.028.422.447.7.6,1.092A.837.837,0,0,1,899.05,396.54Z" transform="translate(-896.729 -394.391)"/>
<path d="M902.61,416.743a2.794,2.794,0,0,1-1.132-1.4c-.237-.559-.386-1.162-.629-1.721a5.307,5.307,0,0,0-1.118-1.646.732.732,0,0,0-.3-.207.816.816,0,0,0-.615.171,2.828,2.828,0,0,1-.936.411,1,1,0,0,1-.939-.279,1.412,1.412,0,0,1-.151-1.174,14.534,14.534,0,0,0,.442-2.621A2.568,2.568,0,0,0,896.117,406a10.02,10.02,0,0,0-2.285-.5,2.942,2.942,0,0,1-1.064-.545.505.505,0,0,1-.056-.053,1.394,1.394,0,0,0-.184.087c-.123.064-.254.182-.221.316a.341.341,0,0,0,.126.156,2.91,2.91,0,0,0,1.062.545,9.461,9.461,0,0,1,2.286.5,2.589,2.589,0,0,1,1.118,2.285,14.507,14.507,0,0,1-.442,2.621,1.411,1.411,0,0,0,.151,1.173,1,1,0,0,0,.939.279,2.793,2.793,0,0,0,.936-.408.808.808,0,0,1,.615-.173.741.741,0,0,1,.3.207,5.361,5.361,0,0,1,1.118,1.646c.246.559.391,1.159.632,1.724a2.793,2.793,0,0,0,1.118,1.4,1.382,1.382,0,0,0,1.676-.179,1.318,1.318,0,0,0,.251-.425A1.442,1.442,0,0,1,902.61,416.743Z" transform="translate(-892.301 -401.612)"/>
<path d="M937.84,434.714c.422-.534.978-.989,1.375-1.548.078-.112.151-.229.218-.347A13.739,13.739,0,0,0,937.84,434.714Z" transform="translate(-925.117 -421.731)"/>
</g>
</g>
</svg>