<svg xmlns="http://www.w3.org/2000/svg" viewBox="0 0 32.16 32.17"><defs><style>.cls-1{fill:#ea3d65;}</style></defs><g id="Camada_2" data-name="Camada 2"><g id="Camada_1-2" data-name="Camada 1"><path class="cls-1" d="M21.24,21.3l7.59-7.58A7.34,7.34,0,0,0,18.45,3.34l-7.59,7.58Z"/><path class="cls-1" d="M8.47,32.17a8.47,8.47,0,0,1-6-14.46l7.58-7.58a1.15,1.15,0,0,1,1.6,0L22,20.51a1.12,1.12,0,0,1,0,1.59h0l-7.58,7.58a8.42,8.42,0,0,1-6,2.48Zm2.39-19.65L4.08,19.31a6.21,6.21,0,0,0,8.71,8.85l.07-.07,6.79-6.79Z"/><path class="cls-1" d="M21.24,22.43a1.15,1.15,0,0,1-.8-.33L10.07,11.72a1.11,1.11,0,0,1,0-1.59h0l7.58-7.58A8.47,8.47,0,1,1,29.74,14.4l-.11.11L22,22.1a1.14,1.14,0,0,1-.8.33ZM12.46,10.92l8.78,8.79L28,12.92a6.21,6.21,0,1,0-8.71-8.85.46.46,0,0,0-.07.07Z"/></g></g></svg>