<svg xmlns="http://www.w3.org/2000/svg" width="32" height="32.409" viewBox="0 0 32 32.409"><defs><style>.a{fill:#fff;}</style></defs><path class="a" d="M25.127,7.99c-2.933-.657-6.04-.027-7.732,1.567a1.86,1.86,0,0,1-.29.223C17.481,6.426,20.673,3.8,24.541,3.8a1.014,1.014,0,0,0,1.068-.949A1.014,1.014,0,0,0,24.541,1.9,10.048,10.048,0,0,0,16.9,5.264,7.334,7.334,0,0,0,9.594,0H5.324A1.014,1.014,0,0,0,4.256.949c0,3.665,3.352,6.646,7.473,6.646h3.753a7.682,7.682,0,0,0-.524,2.222,1.877,1.877,0,0,1-.354-.261A8.51,8.51,0,0,0,7.04,7.845,8.268,8.268,0,0,0,.7,13.212,16.375,16.375,0,0,0,.322,21.2a17.458,17.458,0,0,0,3.607,7.742c1.877,2.233,4.116,3.462,6.3,3.462a5.724,5.724,0,0,0,2.5-.568,7.54,7.54,0,0,1,6.53,0,5.7,5.7,0,0,0,2.5.569c2.188,0,4.427-1.23,6.3-3.462A17.456,17.456,0,0,0,31.678,21.2a16.536,16.536,0,0,0-.3-7.753,8.058,8.058,0,0,0-6.255-5.46ZM11.73,5.7A5.232,5.232,0,0,1,6.5,1.9h3.1a5.232,5.232,0,0,1,5.231,3.8ZM29.576,20.874a15.633,15.633,0,0,1-3.214,6.935c-1.443,1.716-3.118,2.7-4.595,2.7a3.377,3.377,0,0,1-1.484-.339,9.91,9.91,0,0,0-8.564,0,3.4,3.4,0,0,1-1.486.339c-1.477,0-3.151-.984-4.595-2.7a15.627,15.627,0,0,1-3.214-6.934,14.838,14.838,0,0,1,.324-7.135A6.166,6.166,0,0,1,7.543,9.691a6.294,6.294,0,0,1,5.509,1.169A4.328,4.328,0,0,0,16,11.99h0a4.324,4.324,0,0,0,2.947-1.129c1.159-1.092,3.486-1.515,5.658-1.029a6.078,6.078,0,0,1,4.715,4.112,15,15,0,0,1,.256,6.93Zm0,0" transform="translate(0 0)"/></svg>