<svg xmlns="http://www.w3.org/2000/svg" width="32" height="31.752" viewBox="0 0 32 31.752"><defs><style>.a{fill:#fff;}</style></defs><path class="a" d="M30.139,9.194l1.113-1.1a2.529,2.529,0,0,0,0-3.592L27.469.744a2.577,2.577,0,0,0-3.62,0l-1.113,1.1L21.714.834a2.577,2.577,0,0,0-3.62,0l-2.258,2.24a2.525,2.525,0,0,0,0,3.592l2.257,2.239L8.974,17.953,6.717,15.714a2.573,2.573,0,0,0-3.62,0L.839,17.954a2.529,2.529,0,0,0,0,3.592l1.022,1.014-1.113,1.1a2.529,2.529,0,0,0,0,3.592L4.531,31.01a2.577,2.577,0,0,0,3.62,0l1.113-1.1,1.022,1.014a2.577,2.577,0,0,0,3.62,0l2.258-2.24a2.525,2.525,0,0,0,0-3.592l-2.257-2.239L23.026,13.8l2.257,2.239a2.573,2.573,0,0,0,3.62,0l2.258-2.24a2.529,2.529,0,0,0,0-3.592ZM25.3,2.181a.515.515,0,0,1,.724,0L29.8,5.934a.506.506,0,0,1,0,.718l-1.113,1.1L24.184,3.285ZM6.7,29.573a.515.515,0,0,1-.724,0L2.2,25.82a.506.506,0,0,1,0-.718L3.31,24l4.507,4.472Zm8.013-2.33-2.258,2.24a.516.516,0,0,1-.724,0L2.288,20.11a.506.506,0,0,1,0-.718C4.738,16.96,4.619,17,4.907,17c.321,0-.373-.58,9.809,9.523A.505.505,0,0,1,14.716,27.243ZM12.46,21.412,10.422,19.39l9.118-9.048,2.038,2.022Zm17.253-9.049c-2.451,2.431-2.331,2.389-2.62,2.389s-.135.077-3.343-3.106c-6.967-6.913-6.616-6.475-6.616-6.776,0-.284-.051-.16,2.408-2.6a.512.512,0,0,1,.362-.149c.3,0-.532-.739,9.809,9.522A.506.506,0,0,1,29.713,12.363Z" transform="translate(0 -0.001)"/></svg>