<svg xmlns="http://www.w3.org/2000/svg" viewBox="0 0 49.77 50"><defs><style>.cls-1{fill:#0e446e;}.cls-2{fill:#fff;}.cls-3{fill:#fdfeff;}</style></defs><g id="Camada_2" data-name="Camada 2"><g id="Camada_1-2" data-name="Camada 1"><path class="cls-1" d="M24.88,49A24,24,0,1,1,48.77,25,24,24,0,0,1,24.88,49Z"/><path class="cls-2" d="M24.88,2A23,23,0,1,1,2,25,23,23,0,0,1,24.88,2m0-2A25,25,0,1,0,49.77,25,24.94,24.94,0,0,0,24.88,0Z"/><path class="cls-3" d="M13.62,30.38h-2V19.62h2Z"/><path class="cls-3" d="M26.42,19.62,28,30.38H25.78l-.85-7-2.81,7H21.05l-2.82-7-.9,7H15.16l1.53-10.76h2l2.85,7,2.85-7Z"/><path class="cls-3" d="M34.74,28.58a3.54,3.54,0,0,0,2.67-1.1l.79,1.86a5,5,0,0,1-1.62.95,5.4,5.4,0,0,1-1.87.34A5.57,5.57,0,0,1,30.66,29a5.55,5.55,0,0,1,0-8,5.57,5.57,0,0,1,4.05-1.65,5.63,5.63,0,0,1,1.87.33,4.82,4.82,0,0,1,1.62.95l-.79,1.85a3.71,3.71,0,0,0-2.67-1.08,3.66,3.66,0,0,0-2.62,1,3.5,3.5,0,0,0,0,5.08A3.62,3.62,0,0,0,34.74,28.58Z"/></g></g></svg>