<svg xmlns="http://www.w3.org/2000/svg" width="40.423" height="34.607" viewBox="0 0 40.423 34.607">
  <g id="Grupo_104" data-name="Grupo 104" transform="translate(0.25 1)">
    <path id="Caminho_722" data-name="Caminho 722" d="M27.329,34.495a.759.759,0,0,1,.8-.434.706.706,0,0,1,.648.6l1.194,12.4L32.209,39.9a.774.774,0,0,1,1.449.028l1.246,4.8L37.03,36.79a.742.742,0,0,1,.762-.51.72.72,0,0,1,.705.571l1.587,10.056.712-2.044a.743.743,0,0,1,.714-.468h8a11.612,11.612,0,0,0,2.287-4.638c.61-3.329.015-6.074-1.772-8.158-1.8-2.1-4.547-3.3-8.389-3.67-.369-.033-.707-.048-1.041-.048A13.181,13.181,0,0,0,33.021,30.3a13.168,13.168,0,0,0-7.563-2.419c-.338,0-.672.016-1.044.048-3.843.366-6.587,1.566-8.39,3.67-1.787,2.084-2.382,4.83-1.772,8.158a11.718,11.718,0,0,0,2.341,4.711H23.3Z" transform="translate(-12.856 -27.88)" fill="none" stroke="#fff" stroke-width="2"/>
    <path id="Caminho_723" data-name="Caminho 723" d="M53.34,152.921c2.546,2.878,11.5,13.007,12.283,13.589a5.865,5.865,0,0,0,3.249,1.32,5.851,5.851,0,0,0,3.246-1.32c.782-.582,9.871-10.686,12.422-13.589a27.64,27.64,0,0,0-15.669-5.55C63.595,147.154,54.841,150.112,53.34,152.921Z" transform="translate(-48.707 -135.223)" fill="#0e446e" stroke="#fff" stroke-width="2"/>
    <path id="Caminho_808" data-name="Caminho 808" d="M17,1.9c9.389,0,16.9,2.887,16.9,8.133S26.389,19,17,19,0,14.747,0,9.5,7.611,1.9,17,1.9Z" transform="translate(3 2.665)" fill="#0e446e"/>
    <path id="Caminho_724" data-name="Caminho 724" d="M38.3,112.961H28.7a.741.741,0,0,0-.712.485l-.709,2.118L25.7,105.143a.725.725,0,0,0-.7-.592.74.74,0,0,0-.76.528l-2.12,8.229-1.241-4.977a.762.762,0,0,0-1.444-.029L17.2,115.728l-1.191-12.853a.715.715,0,0,0-.646-.624.752.752,0,0,0-.8.45l-4.013,10.336H.745a.691.691,0,1,0,0,1.377H11.081a.744.744,0,0,0,.7-.456l3.038-7.824,1.253,13.524a.718.718,0,0,0,.673.627l.069,0a.739.739,0,0,0,.717-.5l2.552-8.5,1.3,5.2a.735.735,0,0,0,.723.534h0a.736.736,0,0,0,.725-.529l1.942-7.539,1.5,9.861a.723.723,0,0,0,.678.591.746.746,0,0,0,.772-.483l1.533-4.577H38.3a.691.691,0,1,0,0-1.377Z" transform="translate(0 -95.516)" fill="#fff" stroke="#fff" stroke-width="0.5"/>
  </g>
</svg>
