<svg xmlns="http://www.w3.org/2000/svg" viewBox="0 0 98.35 13.54"><defs><style>.cls-1{fill:#fff;}.cls-2{fill:#ea3d65;}</style></defs><g id="Camada_2" data-name="Camada 2"><g id="Camada_1-2" data-name="Camada 1"><path class="cls-1" d="M4.32,8.55a2.67,2.67,0,0,0,2-.83l.59,1.39a3.64,3.64,0,0,1-1.21.72,4.1,4.1,0,0,1-1.4.25,4.16,4.16,0,0,1-3-1.24A4,4,0,0,1,0,5.86a4,4,0,0,1,1.26-3,4.16,4.16,0,0,1,3-1.24,4.1,4.1,0,0,1,1.4.25,3.46,3.46,0,0,1,1.21.71L6.32,4a2.74,2.74,0,0,0-2-.82,2.72,2.72,0,0,0-2,.79,2.55,2.55,0,0,0-.81,1.9,2.55,2.55,0,0,0,.81,1.9A2.72,2.72,0,0,0,4.32,8.55Z"/><path class="cls-1" d="M8.6,4.67a3.09,3.09,0,0,1,2.25-.92A3.16,3.16,0,0,1,14,6.92a3,3,0,0,1-.93,2.24,3,3,0,0,1-2.24.92A3.14,3.14,0,0,1,7.68,6.92,3.09,3.09,0,0,1,8.6,4.67Zm1.1,3.4a1.62,1.62,0,0,0,2.3,0,1.63,1.63,0,0,0,0-2.31,1.62,1.62,0,0,0-2.3,0,1.63,1.63,0,0,0,0,2.31Z"/><path class="cls-1" d="M16.51,5.2a2.13,2.13,0,0,1,1-1A3.78,3.78,0,0,1,19,3.75V5.56a2.24,2.24,0,0,0-1.15,0A1.85,1.85,0,0,0,16.51,7.4V9.89H15v-6h1.53Z"/><path class="cls-1" d="M24.38,3.94h1.54v6H24.38V9.26a2.3,2.3,0,0,1-1.82.82,2.79,2.79,0,0,1-2.11-.93,3.14,3.14,0,0,1-.87-2.23,3.15,3.15,0,0,1,.87-2.24,2.79,2.79,0,0,1,2.11-.93,2.28,2.28,0,0,1,1.82.83ZM21.6,8.07a1.62,1.62,0,0,0,2.3,0,1.63,1.63,0,0,0,0-2.31,1.62,1.62,0,0,0-2.3,0,1.63,1.63,0,0,0,0,2.31Z"/><path class="cls-1" d="M32.26,9.38a2.87,2.87,0,0,1-1.77.69l-.38.4a1.56,1.56,0,0,1,1.16.3,1.24,1.24,0,0,1,.51,1,1.62,1.62,0,0,1-.55,1.24,2,2,0,0,1-1.37.49,1.74,1.74,0,0,1-1.54-.76l.65-.73a.89.89,0,0,0,.87.63,1.23,1.23,0,0,0,.83-.26A.81.81,0,0,0,31,11.8a.66.66,0,0,0-.26-.55,1,1,0,0,0-.65-.21,1.33,1.33,0,0,0-.75.2l-.4-.58.62-.62A3.05,3.05,0,0,1,27.58,9a3.11,3.11,0,0,1-.7-2.05,3.1,3.1,0,0,1,.9-2.27,3.25,3.25,0,0,1,2.41-.9,3,3,0,0,1,2.07.71l-.64,1.38a2,2,0,0,0-2.71-.09,1.53,1.53,0,0,0-.49,1.17,1.53,1.53,0,0,0,.49,1.16,1.89,1.89,0,0,0,1.33.47A1.87,1.87,0,0,0,31.62,8Z"/><path class="cls-1" d="M37.63,3.94h1.54v6H37.63V9.26a2.31,2.31,0,0,1-1.82.82,2.78,2.78,0,0,1-2.11-.93,3.14,3.14,0,0,1-.87-2.23,3.15,3.15,0,0,1,.87-2.24,2.78,2.78,0,0,1,2.11-.93,2.29,2.29,0,0,1,1.82.83Zm.24-2,.82.3a1.51,1.51,0,0,1-1.42,1,2.41,2.41,0,0,1-.93-.23,1.83,1.83,0,0,0-.87-.19.71.71,0,0,0-.57.42l-.82-.3a1.56,1.56,0,0,1,1.44-1,2.65,2.65,0,0,1,.89.22,1.62,1.62,0,0,0,.87.2A.71.71,0,0,0,37.87,1.91Zm-3,6.16a1.62,1.62,0,0,0,2.3,0,1.63,1.63,0,0,0,0-2.31,1.62,1.62,0,0,0-2.3,0,1.63,1.63,0,0,0,0,2.31Z"/><path class="cls-1" d="M41.05,4.67a3.2,3.2,0,0,1,4.49,0,3.06,3.06,0,0,1,.92,2.25,3.17,3.17,0,0,1-5.41,2.24,3.07,3.07,0,0,1-.92-2.24A3.09,3.09,0,0,1,41.05,4.67Zm1.09,3.4a1.63,1.63,0,1,0,2.31-2.31,1.64,1.64,0,0,0-2.79,1.16A1.58,1.58,0,0,0,42.14,8.07Z"/><path class="cls-1" d="M73.77,10.14,73,8.41H68.61l-.79,1.73H67L70.8,1.89l3.84,8.25ZM69,7.65h3.67l-1.83-4Z"/><path class="cls-1" d="M75.6,1.69h.76v8.45H75.6Z"/><path class="cls-1" d="M83.08,7.24a2.73,2.73,0,0,1,0,.41H78.31A1.86,1.86,0,0,0,79,9a2.39,2.39,0,0,0,1.54.5,3,3,0,0,0,1.85-.62l.29.69a3.21,3.21,0,0,1-2.16.7,2.88,2.88,0,0,1-3-3,3,3,0,0,1,.78-2.13,2.73,2.73,0,0,1,2.08-.84,2.56,2.56,0,0,1,1.94.79A3,3,0,0,1,83.08,7.24Zm-4.77-.36h4a2,2,0,0,0-.52-1.26,1.8,1.8,0,0,0-1.43-.57,1.94,1.94,0,0,0-2,1.83Z"/><path class="cls-1" d="M85,5.62a2.14,2.14,0,0,1,1-1,3.25,3.25,0,0,1,1.52-.36v.87a2,2,0,0,0-1.2,0,1.77,1.77,0,0,0-.94.77A2.53,2.53,0,0,0,85,7.38v2.76h-.76V4.38H85Z"/><path class="cls-1" d="M89.32,8.26V5.15h-.76V4.38h.76V2.08h.77v2.3h1.15v.77H90.09V8.32c0,.55.08.88.23,1a.83.83,0,0,0,.92,0v.78a1.76,1.76,0,0,1-.66.12,1.17,1.17,0,0,1-.81-.28,1.31,1.31,0,0,1-.37-.68A5.69,5.69,0,0,1,89.32,8.26Z"/><path class="cls-1" d="M97.58,4.38h.77v5.76h-.77v-1a2.58,2.58,0,0,1-2.21,1.12,3,3,0,0,1-3-3,3,3,0,0,1,3-3A2.59,2.59,0,0,1,97.58,5.4ZM93.81,8.82a2.21,2.21,0,0,0,3.77-1.56,2.21,2.21,0,1,0-3.77,1.56Z"/><path class="cls-2" d="M65.59,6.18H64.1a4.74,4.74,0,0,0,.31-3.3A3.92,3.92,0,0,0,60.69.05a4.12,4.12,0,0,0-1.6.32,9.23,9.23,0,0,0-1.87.91,6,6,0,0,0-1.86-1A4.35,4.35,0,0,0,53.76,0,3.88,3.88,0,0,0,50,2.82a4.62,4.62,0,0,0,.48,3.57H48.7a.26.26,0,0,0-.27.27.25.25,0,0,0,.27.26h2.13a1.52,1.52,0,0,0,.27.54,19.53,19.53,0,0,0,6.18,5.38h.1a20.42,20.42,0,0,0,6.08-5.38c.16-.22.32-.48.48-.75h1.75A.25.25,0,0,0,66,6.45C65.91,6.23,65.75,6.13,65.59,6.18Zm-2.67,1a22.37,22.37,0,0,1-5.7,5.11,21.53,21.53,0,0,1-5.7-5.11L51.42,7h2.45a.3.3,0,0,0,.26-.16l1.12-2.19L57,9.11a.29.29,0,0,0,.27.16h0a.36.36,0,0,0,.26-.21l1.55-5.22.8,2.66c0,.11.1.16.21.16a.39.39,0,0,0,.27-.11l.64-1,.53.91c.05.11.16.16.21.11h1.49a3.71,3.71,0,0,1-.32.53Zm.64-1H61.91L61.22,5c0-.11-.16-.16-.21-.11a.28.28,0,0,0-.22.11l-.58.85-.91-3A.28.28,0,0,0,59,2.66c-.1,0-.21.11-.26.22L57.22,8.2,55.57,3.94a.26.26,0,0,0-.26-.21.29.29,0,0,0-.27.16L53.76,6.45H51.1A4.27,4.27,0,0,1,50.57,3,3.34,3.34,0,0,1,53.76.59,4.56,4.56,0,0,1,55.2.85a6.2,6.2,0,0,1,1.86,1,.2.2,0,0,0,.32,0,7.06,7.06,0,0,1,1.87-1A4.56,4.56,0,0,1,60.69.59,3.3,3.3,0,0,1,63.88,3,4.27,4.27,0,0,1,63.56,6.18Z"/></g></g></svg>