<svg xmlns="http://www.w3.org/2000/svg" width="24" height="24" viewBox="0 0 46 46"><defs><style>.a{fill:#fff;}</style></defs><g transform="translate(4 6)"><path class="a" d="M322.715,20.024A4.024,4.024,0,1,1,318.692,16,4.024,4.024,0,0,1,322.715,20.024Zm0,0" transform="translate(-291.644 -15.071)"/><path class="a" d="M303.62,9.9a4.952,4.952,0,1,1,4.952-4.953A4.957,4.957,0,0,1,303.62,9.9Zm0-8.048a3.1,3.1,0,1,0,3.1,3.1,3.1,3.1,0,0,0-3.1-3.1Zm0,0" transform="translate(-276.573 0)"/><path class="a" d="M322.715,361.356a4.024,4.024,0,1,1-4.024-4.024A4.024,4.024,0,0,1,322.715,361.356Zm0,0" transform="translate(-291.644 -334.308)"/><path class="a" d="M303.62,351.237a4.952,4.952,0,1,1,4.952-4.952A4.957,4.957,0,0,1,303.62,351.237Zm0-8.048a3.1,3.1,0,1,0,3.1,3.1A3.1,3.1,0,0,0,303.62,343.189Zm0,0" transform="translate(-276.573 -319.237)"/><path class="a" d="M24.048,190.692a4.024,4.024,0,1,1-4.024-4.024A4.024,4.024,0,0,1,24.048,190.692Zm0,0" transform="translate(-15.071 -174.692)"/><path class="a" d="M4.952,180.573A4.952,4.952,0,1,1,9.9,175.62,4.957,4.957,0,0,1,4.952,180.573Zm0-8.047a3.1,3.1,0,1,0,3.1,3.1A3.1,3.1,0,0,0,4.952,172.525Zm0,0" transform="translate(0 -159.62)"/><path class="a" d="M116.01,99.242a1.821,1.821,0,0,1-1.445-.625c-.453-.593-.174-1.35.621-1.689l15.406-6.549a1.99,1.99,0,0,1,2.265.463c.453.593.174,1.35-.621,1.689L116.83,99.079A2.1,2.1,0,0,1,116.01,99.242Zm0,0" transform="translate(-107.712 -84.4)"/><path class="a" d="M131.436,275.246a2.1,2.1,0,0,1-.82-.162l-15.406-6.549a1.09,1.09,0,0,1-.621-1.689,1.989,1.989,0,0,1,2.265-.463l15.406,6.549a1.09,1.09,0,0,1,.621,1.689A1.825,1.825,0,0,1,131.436,275.246Zm0,0" transform="translate(-107.734 -249.061)"/></g></svg>