<svg xmlns="http://www.w3.org/2000/svg" width="32.1" height="32.101" viewBox="0 0 32.1 32.101">
  <path id="Caminho_784" data-name="Caminho 784" d="M29.621,2.48a8.466,8.466,0,0,0-11.974,0l-7.583,7.583L2.481,17.647A8.467,8.467,0,1,0,14.455,29.621l7.583-7.583,7.583-7.584a8.467,8.467,0,0,0,0-11.974ZM12.858,28.024a6.209,6.209,0,0,1-8.781-8.781l6.785-6.786,8.781,8.782ZM28.025,12.858,21.24,19.644l-8.781-8.782,6.785-6.785a6.209,6.209,0,0,1,8.781,8.781Zm0,0" transform="translate(0 0)" fill="#fff"/>
</svg>
